<?xml version="1.0" standalone="no"?>
<!DOCTYPE svg PUBLIC "-//W3C//DTD SVG 20010904//EN"
 "http://www.w3.org/TR/2001/REC-SVG-20010904/DTD/svg10.dtd">
<svg version="1.0" xmlns="http://www.w3.org/2000/svg"
 width="1059.000000pt" height="1059.000000pt" viewBox="0 0 1059.000000 1059.000000"
 preserveAspectRatio="xMidYMid meet">
<metadata>
Created by potrace 1.14, written by Peter Selinger 2001-2017
</metadata>
<g transform="translate(0.000000,1059.000000) scale(0.100000,-0.100000)"
fill="#000000" stroke="none">
<path d="M84 10568 c4 -13 11 -58 16 -101 10 -92 19 -138 30 -152 10 -13 47
-115 70 -190 10 -33 23 -107 30 -165 6 -58 16 -113 21 -122 5 -10 9 -27 9 -38
0 -21 59 -90 76 -90 13 0 62 -47 104 -100 19 -24 54 -64 77 -89 23 -25 43 -52
43 -58 0 -26 82 -9 102 21 5 6 15 37 25 69 12 45 22 62 42 70 14 7 32 18 40
25 7 7 21 10 30 8 9 -3 34 -6 56 -7 42 -3 105 -40 132 -78 8 -12 22 -21 31
-21 19 0 48 -56 57 -111 3 -22 -1 -55 -10 -83 -10 -29 -16 -80 -16 -134 0 -48
-2 -106 -5 -129 -7 -49 13 -103 37 -103 9 0 20 -7 23 -16 4 -11 14 -14 34 -9
21 4 41 -1 73 -19 92 -53 125 -66 169 -66 42 0 90 -14 180 -53 19 -8 56 -18
81 -21 26 -4 71 -16 100 -26 30 -11 64 -20 76 -20 12 0 25 -5 29 -11 3 -6 15
-9 25 -6 10 3 21 2 24 -3 2 -4 18 -10 35 -14 17 -3 46 -17 64 -31 18 -14 43
-25 56 -25 12 0 28 -6 34 -13 6 -7 38 -21 71 -31 33 -10 62 -22 66 -27 3 -5
61 -15 130 -24 155 -18 214 -30 261 -52 43 -21 50 -43 68 -218 5 -55 19 -131
30 -170 24 -83 41 -151 45 -184 2 -13 8 -28 14 -34 6 -6 11 -23 11 -37 l0 -26
-100 1 c-80 0 -103 -3 -116 -17 -36 -36 5 -65 104 -73 l57 -4 -45 10 c-107 26
-120 30 -120 38 0 19 59 30 140 26 95 -4 114 -17 126 -80 3 -19 23 -50 45 -74
36 -37 50 -73 32 -84 -5 -2 -3 -2 4 -1 11 3 40 -24 32 -29 -2 -1 -13 -7 -24
-13 -11 -6 -20 -20 -20 -30 0 -11 -34 -53 -76 -94 -121 -120 -164 -207 -176
-353 -5 -66 -2 -91 17 -155 13 -42 34 -93 47 -112 13 -19 23 -38 23 -43 0 -12
30 -40 31 -30 1 4 1 16 0 26 -3 21 12 22 33 2 15 -15 36 -20 36 -9 0 3 -25 34
-55 67 -30 34 -55 71 -55 82 0 11 -7 33 -15 49 -20 38 -21 188 -2 242 36 99
155 235 249 284 38 19 65 19 53 -1 -4 -5 -1 -9 5 -9 6 0 8 -5 4 -12 -12 -19
-10 -68 2 -68 14 0 1 -77 -20 -118 -19 -37 -46 -153 -46 -199 l0 -35 35 42
c19 23 35 45 36 48 0 4 2 22 4 40 1 19 8 39 15 45 9 9 11 5 5 -20 -4 -18 -5
-33 -2 -33 3 0 23 24 45 54 73 96 268 283 325 311 48 23 69 26 262 35 116 6
227 11 248 11 24 1 37 6 37 14 0 10 19 14 74 14 48 0 95 7 134 20 34 12 75 21
91 21 21 0 32 6 36 20 3 11 13 20 21 20 9 0 25 5 37 12 12 7 33 13 47 14 59 5
121 17 125 25 3 4 17 1 32 -6 15 -8 45 -14 68 -13 23 0 54 -6 71 -14 16 -9 52
-18 81 -20 45 -4 52 -3 57 15 4 16 8 18 18 9 14 -11 54 -13 240 -14 60 0 111
-4 114 -9 4 -6 11 -6 19 1 9 8 15 8 20 0 3 -6 10 -8 14 -6 4 3 39 -4 78 -14
39 -10 93 -22 119 -25 27 -4 54 -13 59 -20 10 -13 17 -15 38 -15 7 0 20 -12
30 -27 15 -23 18 -24 14 -7 -4 19 -2 20 39 11 24 -6 44 -15 44 -20 0 -5 -7 -7
-15 -3 -8 3 -15 1 -15 -4 0 -6 10 -11 23 -12 75 -6 107 -5 107 3 0 17 18 9 23
-10 4 -16 11 -19 46 -14 22 3 41 2 41 -3 0 -5 21 -8 48 -6 56 5 49 -12 -13
-28 -35 -8 -31 -9 32 -5 39 3 78 8 87 11 11 4 16 1 16 -11 0 -11 6 -15 18 -11
53 15 82 17 82 6 0 -7 9 -9 23 -6 19 5 19 5 -3 -6 -24 -11 -108 -49 -140 -62
-8 -3 1 -3 20 0 38 6 114 30 142 45 24 12 51 12 43 -1 -3 -5 -15 -10 -26 -10
-23 0 -24 -9 -2 -25 18 -13 22 -7 -56 -74 -13 -12 -27 -21 -31 -21 -5 0 -11
-7 -14 -16 -5 -12 3 -10 32 7 20 12 51 34 67 47 26 21 30 23 33 8 2 -9 8 -16
14 -16 5 0 7 7 4 15 -3 9 1 18 10 22 22 8 25 0 13 -35 -11 -32 -31 -40 -59
-23 -8 6 -18 7 -23 4 -11 -7 40 -33 65 -33 32 0 20 -52 -17 -69 -37 -18 -60
-40 -51 -49 4 -3 10 -2 14 4 9 13 52 16 52 3 0 -22 -121 -78 -170 -79 -14 0
-32 -5 -40 -11 -11 -7 -5 -8 23 -4 20 2 37 2 37 -1 0 -11 -29 -34 -42 -34 -19
0 -58 -29 -40 -30 8 0 53 21 100 48 48 26 95 50 105 54 28 12 16 -14 -14 -29
-18 -10 -20 -13 -6 -13 22 0 22 -5 -4 -31 -15 -15 -18 -24 -10 -33 17 -20 -24
-25 -194 -21 -82 1 -139 1 -125 -2 24 -5 24 -6 5 -14 -15 -7 -12 -8 10 -3 28
6 296 6 302 0 2 -2 -20 -11 -49 -20 -71 -23 -239 -31 -368 -17 -178 19 -196
21 -177 15 9 -3 15 -9 12 -14 -8 -13 52 -32 82 -26 15 3 35 2 43 -4 29 -19
-79 -11 -121 9 -22 11 -66 26 -96 32 -31 7 -51 15 -45 17 15 5 16 32 2 32 -5
0 -10 -4 -10 -9 0 -12 -137 -13 -145 -1 -3 5 -18 15 -33 22 -15 8 -39 22 -54
32 -16 10 -28 14 -28 9 0 -5 22 -22 50 -38 27 -17 50 -33 50 -37 0 -6 -40 3
-108 24 -19 5 -36 8 -38 5 -5 -5 70 -33 211 -78 147 -46 151 -48 165 -74 16
-29 41 -40 52 -23 4 7 8 8 8 3 0 -6 9 -16 20 -23 11 -7 20 -9 20 -5 -1 17 -29
44 -50 48 -34 6 -37 15 -6 15 15 0 50 -14 79 -31 41 -24 46 -30 25 -26 -16 2
-28 0 -28 -4 0 -5 12 -10 28 -10 15 -1 34 -2 43 -3 9 -1 25 -8 35 -17 25 -21
103 -49 139 -50 17 0 24 -3 17 -6 -22 -9 -2 -23 31 -22 27 0 29 2 12 9 -18 8
-17 9 7 9 15 1 30 -4 33 -9 4 -6 15 -8 25 -5 10 3 22 0 26 -6 5 -9 -2 -11 -28
-6 -19 3 -41 2 -48 -3 -8 -5 3 -10 31 -15 24 -4 52 -13 62 -20 15 -10 -2 -14
-100 -19 -65 -4 -131 -4 -145 -1 -15 4 -40 8 -55 10 -15 2 -38 6 -50 10 -17 5
-23 3 -23 -8 0 -10 14 -17 43 -21 77 -12 78 -26 2 -26 -100 -1 -61 -16 60 -23
55 -4 116 -11 135 -17 19 -6 44 -13 55 -15 11 -2 43 -11 70 -18 47 -14 48 -15
20 -19 -21 -4 -15 -5 20 -6 36 -1 46 1 35 8 -12 8 -9 10 13 10 26 0 27 -1 13
-16 -20 -19 -20 -38 -1 -54 8 -7 15 -9 15 -4 0 17 18 -12 24 -39 4 -17 3 -26
-3 -23 -12 8 -2 -34 16 -59 7 -11 13 -29 13 -40 0 -11 11 -37 25 -58 14 -20
21 -37 15 -37 -5 0 -10 5 -10 11 0 5 -5 7 -10 4 -6 -4 -4 -12 5 -21 8 -9 15
-25 15 -36 0 -18 -2 -19 -17 -7 -15 13 -16 11 -9 -11 4 -14 11 -55 15 -91 5
-36 13 -75 20 -87 6 -12 16 -44 21 -72 5 -28 29 -101 54 -163 38 -97 48 -135
62 -242 1 -11 7 -33 13 -48 6 -16 9 -33 5 -38 -3 -5 2 -12 10 -15 9 -3 16 -15
16 -25 0 -10 10 -29 21 -40 17 -17 23 -36 24 -82 2 -39 8 -64 17 -71 22 -17
39 -53 32 -70 -3 -9 -1 -16 5 -16 6 0 11 -11 11 -24 0 -14 5 -28 11 -31 6 -4
8 -14 5 -22 -3 -8 -1 -11 4 -8 6 3 10 -5 10 -19 0 -14 -4 -26 -10 -26 -5 0
-10 -12 -10 -27 0 -22 2 -25 10 -13 9 13 10 13 10 0 0 -9 -6 -22 -13 -29 -15
-15 -13 -151 3 -161 12 -8 20 -330 8 -330 -4 0 -12 -25 -18 -56 -10 -49 -16
-100 -24 -239 -2 -22 -7 -91 -11 -153 -5 -75 -4 -112 2 -112 7 0 11 29 10 73
0 40 5 82 11 93 9 15 11 4 9 -53 -1 -39 1 -69 5 -66 11 6 10 -3 -6 -42 -11
-24 -11 -35 -3 -38 8 -2 8 -15 -2 -45 -14 -42 -8 -69 9 -42 8 12 10 10 10 -8
0 -23 18 -62 34 -73 5 -4 6 -14 3 -23 -7 -19 9 -22 17 -3 4 6 4 1 0 -13 -3
-14 -8 -44 -11 -67 -4 -30 -11 -43 -27 -48 -18 -6 -18 -8 -4 -12 9 -2 19 -12
21 -21 4 -15 5 -15 6 1 2 25 14 21 28 -9 8 -18 9 -32 3 -45 -13 -24 -13 -50 0
-29 5 8 11 12 13 10 10 -11 29 -107 28 -141 -1 -28 3 -38 18 -42 16 -4 18 -11
14 -49 -3 -28 -1 -48 6 -52 6 -4 11 -22 12 -39 l1 -32 11 32 c16 43 24 49 19
14 -4 -30 7 -35 36 -18 7 5 12 3 12 -7 0 -8 9 -20 20 -26 17 -9 20 -8 20 11 0
14 5 19 14 16 10 -4 18 6 27 31 17 53 28 61 35 24 6 -32 28 -43 37 -19 2 6 10
-8 16 -32 7 -23 15 -41 18 -38 3 4 1 19 -5 36 -6 18 -7 41 -2 58 6 22 9 24 10
8 2 -17 3 -17 11 5 6 18 7 7 4 -35 l-4 -60 16 48 c16 49 33 48 27 -1 -2 -17
-1 -20 2 -7 9 30 24 42 25 20 1 -11 7 3 14 30 12 48 13 49 23 25 9 -21 11 -12
10 50 0 47 6 89 16 112 9 21 16 59 16 85 0 66 21 138 40 138 11 0 16 14 18 55
1 30 7 74 13 98 11 38 13 41 25 25 12 -16 15 -16 23 -3 6 8 14 11 18 6 4 -5 2
-11 -4 -13 -15 -5 -17 -33 -3 -33 6 0 10 5 10 12 0 8 6 6 17 -5 13 -13 14 -20
5 -29 -7 -7 -12 -16 -12 -20 0 -15 22 -8 38 11 21 24 68 40 58 20 -4 -8 1 -4
10 8 34 47 46 14 19 -51 -13 -31 -13 -36 -1 -36 8 0 17 8 20 18 3 9 4 -11 2
-46 -2 -34 0 -60 4 -57 5 3 10 -9 12 -27 l3 -32 20 42 c11 23 24 42 28 42 5 0
7 13 5 30 -4 38 14 43 26 8 8 -22 5 -36 -12 -66 -11 -21 -24 -57 -28 -79 -9
-60 -51 -103 -146 -152 -46 -23 -90 -48 -98 -54 -28 -21 -110 -129 -110 -143
0 -8 11 -25 25 -38 65 -61 186 -41 288 46 35 30 42 32 95 28 31 -2 92 -3 135
-3 69 1 80 3 98 24 27 31 20 91 -16 153 -34 58 -34 112 0 128 14 6 25 19 25
30 0 11 7 18 20 18 11 0 20 5 20 11 0 6 7 8 16 5 9 -4 28 1 41 9 13 9 29 12
36 8 17 -10 68 -4 90 12 11 8 26 11 33 8 8 -3 14 0 14 6 0 7 9 9 24 5 22 -5
24 -2 34 58 14 79 8 178 -13 218 -10 20 -14 42 -10 61 5 24 4 28 -9 23 -21 -8
-46 13 -46 38 0 10 -4 17 -8 14 -4 -2 -18 3 -31 13 -19 15 -22 23 -16 49 4 19
11 29 17 26 6 -4 17 1 25 11 12 17 13 16 13 -13 0 -58 17 -34 23 33 3 35 13
77 20 92 8 15 20 52 27 81 15 66 28 57 33 -23 2 -41 4 -27 5 43 2 102 17 140
25 60 2 -30 4 -22 5 27 2 44 6 65 11 56 6 -9 18 -11 38 -7 24 6 31 3 41 -16 9
-20 11 -20 11 -4 1 12 6 16 16 13 20 -8 28 9 15 33 -7 13 -7 20 0 20 5 0 10
-4 10 -10 0 -16 27 -12 34 5 7 18 39 19 66 3 17 -11 22 -10 29 0 6 10 10 10
21 -3 7 -8 16 -15 19 -15 4 0 31 -22 59 -49 29 -28 61 -53 72 -56 11 -4 20
-13 20 -21 0 -32 52 -100 69 -90 23 15 23 72 -2 132 -13 32 -32 80 -41 106
-27 73 -154 173 -246 193 -35 8 -59 29 -60 53 0 6 7 12 15 12 7 0 18 7 23 16
21 37 178 -24 252 -98 52 -52 134 -186 160 -263 10 -29 24 -103 31 -164 28
-247 -34 -479 -185 -694 -23 -32 -55 -79 -73 -105 -66 -98 -109 -150 -134
-165 -17 -9 -30 -27 -34 -48 -6 -29 -45 -100 -73 -134 -4 -5 -19 -26 -32 -45
-14 -19 -27 -37 -30 -40 -3 -3 -24 -30 -47 -60 -143 -190 -438 -410 -663 -493
-83 -31 -159 -39 -291 -29 -92 7 -115 13 -170 41 -35 19 -89 39 -119 47 -66
16 -80 5 -79 -60 1 -37 -33 -186 -48 -210 -10 -16 -21 -89 -16 -103 8 -20 21
-15 25 10 2 18 9 22 32 20 38 -3 49 -15 50 -54 1 -39 23 -50 34 -18 l9 23 6
-24 c6 -23 7 -23 25 -7 22 20 32 22 32 5 1 -17 35 -58 49 -58 18 0 13 -19 -9
-32 -27 -17 -25 -28 5 -28 21 0 25 -5 25 -32 2 -142 5 -167 24 -181 11 -8 16
-19 12 -25 -4 -7 -3 -12 2 -12 8 0 15 -51 25 -176 1 -12 13 -31 27 -43 14 -11
22 -20 18 -21 -4 0 6 -23 22 -50 17 -28 30 -57 30 -65 0 -8 4 -24 9 -37 5 -13
15 -42 22 -66 8 -29 18 -42 30 -42 15 0 17 -8 16 -43 -2 -41 -1 -42 30 -42 18
-1 37 -5 42 -10 15 -16 -24 -147 -74 -253 -50 -102 -63 -136 -145 -362 -29
-80 -79 -202 -111 -271 -33 -69 -59 -131 -59 -137 0 -9 32 -12 110 -12 l110 0
21 33 c14 23 18 42 14 69 -4 27 5 64 32 140 20 57 40 104 45 106 4 2 8 10 8
18 0 19 29 77 44 86 6 4 22 4 36 1 24 -6 24 -5 9 13 -15 17 -15 23 -2 69 20
67 52 154 67 185 9 17 10 34 3 53 -12 37 13 77 48 77 30 0 30 0 5 47 -11 21
-20 46 -20 55 0 36 53 208 64 208 23 0 193 -175 211 -217 11 -27 24 -43 35
-43 21 0 36 -34 50 -120 7 -35 18 -76 26 -92 17 -32 18 -106 3 -145 -10 -26
-12 -27 -19 -8 -5 11 -11 33 -15 48 -10 50 -25 17 -25 -58 0 -40 -4 -75 -9
-77 -7 -2 -49 -99 -107 -248 -20 -54 -17 -88 11 -114 16 -15 25 -34 25 -55 l0
-31 269 0 269 0 5 22 c6 21 -14 48 -21 29 -4 -11 -42 -2 -42 10 0 4 5 11 10
14 6 4 17 21 24 40 8 18 24 43 37 56 17 17 19 24 9 27 -8 3 -19 -3 -25 -13 -5
-9 -23 -34 -40 -55 -16 -21 -37 -47 -45 -59 -16 -23 -69 -30 -71 -8 -3 32 27
90 75 145 11 12 29 38 40 58 15 25 33 40 60 50 22 7 43 11 48 8 4 -3 8 8 8 25
0 41 9 61 29 61 25 0 61 29 61 49 0 10 7 24 15 31 8 7 15 19 15 27 0 12 -7 14
-32 8 -92 -19 -112 -17 -140 8 -23 21 -26 30 -19 54 24 81 42 96 98 81 42 -11
118 -82 110 -102 -7 -17 36 -56 60 -56 28 0 71 -30 77 -53 3 -13 17 -30 32
-37 14 -8 36 -27 49 -42 13 -15 28 -28 33 -28 6 0 36 -24 68 -54 43 -40 73
-59 116 -72 32 -9 58 -21 58 -26 0 -4 9 -8 20 -8 11 0 33 -12 49 -27 16 -16
44 -39 61 -53 49 -38 70 -62 76 -87 6 -23 7 -23 183 -23 l176 0 -36 33 c-20
17 -45 37 -55 44 -18 11 -18 12 2 12 29 1 83 -22 137 -59 l45 -30 406 0 406 0
0 1791 0 1790 -42 -25 c-48 -28 -145 -104 -196 -154 -119 -114 -224 -136 -319
-65 -39 29 -49 63 -58 203 -6 101 -24 216 -47 292 -8 28 -7 61 7 148 12 82 15
140 10 218 -10 163 -26 306 -35 312 -4 3 -13 31 -20 63 -21 94 -51 116 -55 42
-1 -19 -7 -41 -14 -49 -6 -7 -22 -46 -36 -86 -42 -125 -33 -303 22 -403 21
-39 26 -71 26 -150 0 -48 -5 -72 -16 -85 -12 -13 -17 -40 -18 -93 -1 -41 -6
-86 -10 -100 -4 -15 1 -68 12 -125 10 -54 23 -191 29 -304 12 -213 11 -285
-11 -970 -16 -516 -16 -502 0 -635 27 -221 -7 -334 -136 -455 -99 -94 -147
-124 -228 -146 -62 -16 -128 -8 -172 21 -39 26 -105 102 -121 139 -19 43 -11
206 14 266 24 59 82 150 110 173 12 9 30 41 40 70 9 28 21 58 27 65 17 22 -7
301 -39 452 -19 86 -70 185 -123 237 -20 20 -70 58 -113 85 -88 57 -94 72 -78
185 10 74 14 90 35 138 7 17 19 59 25 95 6 36 18 88 27 115 27 90 32 109 38
155 7 61 20 105 61 212 72 190 108 274 125 293 22 25 109 195 109 213 0 7 13
38 29 70 37 76 66 167 87 277 9 51 26 105 39 125 12 20 26 56 30 80 4 25 14
54 21 65 7 11 18 45 25 75 6 30 18 64 25 75 11 15 14 70 14 242 0 142 4 223
10 223 6 0 10 -8 10 -17 0 -9 2 -14 5 -11 3 2 -3 46 -12 97 -14 76 -14 94 -4
101 19 11 31 221 20 340 -5 52 -13 156 -18 230 -11 149 -52 348 -81 395 -20
30 -28 19 -10 -14 11 -22 50 -165 50 -186 0 -28 -39 6 -51 45 -7 19 -15 40
-20 45 -18 23 -129 255 -129 269 0 9 -7 16 -15 16 -8 0 -15 4 -15 8 0 4 -16
25 -35 46 -37 41 -45 62 -20 52 17 -6 21 9 5 19 -5 3 -10 13 -10 22 0 14 4 13
23 -5 26 -24 77 -40 77 -23 0 6 -14 18 -30 26 -17 9 -44 37 -60 63 -16 26 -54
71 -84 101 -31 30 -60 69 -67 90 -16 50 -56 106 -127 178 -33 34 -75 83 -93
109 -28 42 -92 113 -252 284 -40 42 -102 100 -189 177 -20 17 -62 46 -95 64
-32 18 -65 38 -73 44 -8 6 -35 18 -58 25 -50 16 -57 28 -67 116 -3 32 -9 72
-12 89 -5 26 -4 28 11 16 9 -7 16 -18 16 -23 0 -5 9 -21 20 -35 23 -29 25 -26
10 12 -8 22 -8 26 4 22 7 -3 13 0 13 6 -1 52 16 63 35 22 6 -14 17 -24 24 -21
12 4 44 -23 44 -38 0 -17 45 -66 61 -66 37 0 109 58 109 88 0 6 5 12 11 14 17
6 19 305 2 345 -15 38 -17 119 -3 136 5 7 21 27 36 44 25 32 27 32 84 26 49
-5 66 -2 107 18 46 23 57 24 243 23 161 0 206 -3 255 -19 207 -64 290 -165
256 -312 -6 -27 -13 -73 -16 -103 -2 -30 -10 -100 -16 -156 -10 -86 -9 -104 4
-130 24 -46 57 -60 114 -47 57 13 83 3 128 -51 27 -32 35 -36 78 -36 28 0 58
7 73 17 33 21 83 27 111 12 27 -15 72 2 119 43 45 40 106 47 167 19 25 -12 50
-21 55 -21 6 0 31 19 57 43 82 73 88 77 102 77 10 0 13 37 13 185 l0 186 -35
-7 c-30 -5 -36 -3 -46 19 -17 37 -4 94 24 103 12 4 30 7 40 5 16 -2 17 56 17
1108 l0 1111 -5256 0 -5256 0 6 -22z m959 -656 c9 -8 17 -21 17 -27 0 -7 6
-15 13 -18 10 -4 13 2 9 19 -2 14 0 24 7 24 6 0 11 -9 11 -20 0 -14 6 -20 23
-19 12 0 16 3 10 6 -24 9 -13 20 27 31 38 9 40 9 40 -14 0 -27 24 -33 34 -9 3
8 10 15 16 15 5 0 10 -7 10 -15 0 -8 5 -15 10 -15 6 0 10 -13 10 -29 0 -17 5
-33 10 -36 6 -4 8 -11 5 -16 -4 -5 -3 -18 0 -30 5 -14 12 -18 25 -14 15 5 21
-1 29 -32 6 -21 12 -49 13 -63 2 -14 11 -28 20 -32 10 -4 27 -22 38 -40 11
-18 20 -29 20 -24 0 5 7 3 15 -4 11 -9 15 -9 15 -1 0 6 13 10 29 9 16 -1 28
-5 25 -10 -3 -4 14 -12 36 -19 22 -7 40 -16 40 -21 0 -12 78 -10 85 2 10 16
34 12 104 -17 48 -19 81 -26 122 -24 39 1 72 -5 105 -20 37 -15 61 -19 97 -15
27 3 47 1 47 -4 0 -6 8 -10 19 -10 10 0 35 -11 56 -25 25 -18 41 -23 49 -16
15 13 75 8 105 -9 13 -7 37 -26 53 -42 28 -29 30 -29 54 -13 25 16 35 14 64
-15 32 -32 75 -50 117 -50 98 0 202 -9 222 -20 13 -6 21 -7 21 -1 0 11 107 44
119 36 5 -2 14 2 20 9 8 10 23 13 46 9 26 -4 36 -2 41 11 11 27 88 21 119 -9
29 -30 31 -38 10 -59 -12 -12 -22 -13 -46 -4 -16 6 -58 8 -91 6 -57 -4 -64 -7
-98 -46 -20 -23 -45 -63 -54 -89 -33 -92 -44 -110 -75 -123 -17 -7 -31 -17
-31 -23 0 -6 -18 -7 -47 -3 -28 4 -60 1 -80 -6 -33 -12 -35 -11 -69 25 -21 21
-52 41 -77 48 -23 7 -46 16 -52 19 -51 36 -130 70 -160 70 -20 0 -61 11 -90
26 -51 24 -55 24 -79 9 -23 -15 -28 -15 -63 1 -21 10 -46 24 -55 31 -12 11
-21 12 -37 4 -11 -6 -32 -11 -48 -11 -33 1 -112 21 -132 34 -8 5 -53 10 -101
11 -101 3 -125 14 -159 76 -13 23 -26 37 -30 32 -9 -14 -72 -22 -119 -16 -37
5 -41 9 -48 42 -5 20 -8 42 -7 49 0 7 -17 23 -38 35 -27 15 -40 31 -45 52 -7
33 -31 65 -49 65 -17 0 -145 135 -145 153 0 18 -82 52 -105 44 -8 -4 -15 -1
-15 6 0 7 -10 17 -22 22 -18 8 -23 20 -26 55 -2 25 -7 47 -11 50 -12 9 -11 54
2 62 15 9 46 0 70 -20z m2854 -8 c105 -31 166 -119 162 -235 -2 -50 -6 -63
-26 -79 -12 -10 -23 -23 -23 -29 0 -6 -15 -18 -32 -27 -18 -9 -61 -37 -95 -61
l-63 -45 -30 22 c-26 18 -35 20 -58 11 -15 -6 -50 -10 -79 -9 -33 1 -60 -4
-77 -15 -33 -22 -68 -22 -96 1 -20 16 -22 28 -25 122 -3 124 2 170 21 170 8 0
14 4 14 9 0 21 89 94 154 126 119 58 165 65 253 39z m3700 -510 c72 -7 149
-41 195 -87 13 -13 31 -28 40 -33 8 -5 27 -27 42 -48 24 -35 26 -48 26 -136 0
-84 -3 -99 -20 -115 -11 -10 -26 -15 -36 -11 -12 4 -15 2 -10 -9 9 -23 -21
-18 -58 10 -18 14 -38 25 -44 25 -6 0 -12 6 -15 13 -3 9 -7 9 -19 0 -20 -17
-111 -7 -165 18 -24 10 -47 19 -52 19 -5 0 -19 13 -30 29 -15 20 -33 31 -60
36 -39 6 -78 37 -81 65 -5 31 1 40 25 40 14 0 25 5 25 10 0 6 -7 10 -15 10
-23 0 -18 30 18 100 29 59 35 65 65 66 18 1 36 5 40 9 4 3 19 4 34 1 15 -3 58
-8 95 -12z m-4235 -144 c-11 -11 -25 -20 -30 -20 -5 0 -21 -10 -36 -21 -15
-12 -30 -18 -33 -15 -8 8 27 35 45 36 6 0 12 11 12 25 0 31 30 49 50 30 12
-13 11 -17 -8 -35z m-142 -46 c38 -8 49 -30 24 -49 -11 -8 -14 -14 -6 -15 21
0 13 -18 -12 -24 -14 -3 -26 -16 -30 -31 -4 -17 -11 -23 -23 -18 -12 5 -14 3
-8 -7 6 -10 4 -12 -8 -7 -11 4 -25 -6 -45 -33 -22 -31 -31 -37 -41 -27 -9 9
-14 9 -21 -3 -5 -8 -10 -10 -10 -5 0 6 -7 1 -15 -9 -14 -19 -15 -18 -15 15 0
48 24 122 52 160 39 53 82 68 158 53z m4140 -134 c0 -5 -2 -10 -4 -10 -3 0 -8
5 -11 10 -3 6 -1 10 4 10 6 0 11 -4 11 -10z m80 -16 c0 -8 5 -14 10 -14 6 0
10 -7 10 -16 0 -11 -5 -14 -16 -10 -9 3 -24 6 -33 6 -21 0 -46 47 -28 53 21 7
57 -5 57 -19z m693 -296 c16 -8 25 -19 23 -28 -2 -8 -7 -32 -11 -52 -3 -21
-12 -38 -19 -38 -33 0 -68 89 -45 116 14 17 18 17 52 2z m-4843 -91 c0 -38 -7
-53 -52 -110 l-52 -66 -18 38 c-22 48 -29 127 -10 124 6 -2 12 3 12 11 0 10 8
13 27 10 15 -3 30 -7 35 -10 4 -3 11 2 14 10 3 9 12 16 20 16 8 0 14 5 14 10
0 6 2 10 5 10 3 0 5 -20 5 -43z m4976 3 c8 0 14 6 14 13 1 6 7 -3 15 -22 12
-26 12 -37 4 -48 -10 -11 -15 -11 -30 3 -11 10 -19 27 -19 38 0 18 -2 19 -11
6 -9 -12 -10 -12 -5 3 3 10 7 24 7 30 1 7 3 4 6 -5 2 -10 11 -18 19 -18z
m-5219 -72 c-3 -7 -5 -2 -5 12 0 14 2 19 5 13 2 -7 2 -19 0 -25z m-72 -55 c8
-32 28 -103 44 -158 47 -161 54 -199 46 -278 -4 -39 -10 -76 -12 -80 -7 -12
-173 148 -173 166 0 5 -9 21 -19 36 -44 61 -78 219 -51 236 5 3 19 -9 30 -27
l20 -33 0 42 c0 23 6 55 12 70 12 27 66 83 80 83 4 0 14 -26 23 -57z m126 -43
c11 -40 18 -83 17 -94 -3 -19 -5 -18 -20 9 -15 29 -37 176 -24 164 4 -3 16
-39 27 -79z m129 -9 c-5 -11 -15 -23 -22 -27 -7 -5 -8 -2 -3 7 21 37 44 55 25
20z m-83 -53 c-3 -8 -6 -5 -6 6 -1 11 2 17 5 13 3 -3 4 -12 1 -19z m113 -18
c0 -22 -3 -40 -7 -40 -15 0 -30 47 -21 64 16 28 28 17 28 -24z m-540 -38 c0
-7 -4 -10 -10 -7 -5 3 -10 16 -10 28 0 18 2 19 10 7 5 -8 10 -21 10 -28z m455
9 c-7 -23 -25 -29 -25 -8 0 14 21 39 28 33 2 -3 1 -14 -3 -25z m27 -73 c-8
-27 -11 -30 -17 -15 -4 10 -2 30 5 45 16 34 24 14 12 -30z m43 12 c8 -13 -22
-83 -33 -76 -6 3 -5 23 1 46 11 40 20 49 32 30z m-415 -166 c0 -23 -15 -7 -25
26 -7 22 -6 23 9 8 9 -9 16 -25 16 -34z m-15 -34 c11 -16 28 -30 38 -30 11 0
21 -9 24 -19 6 -22 40 -35 46 -17 3 8 9 7 21 -4 16 -13 16 -15 2 -20 -14 -5
-13 -11 8 -49 13 -25 33 -48 46 -53 18 -7 21 -5 16 8 -4 11 -1 14 12 12 9 -2
16 -7 15 -11 -2 -4 -3 -27 -3 -52 0 -38 -3 -45 -19 -45 -11 0 -23 9 -26 20 -3
11 -13 20 -21 20 -11 0 -12 -4 -4 -19 5 -11 10 -22 10 -25 0 -10 -70 -6 -91 4
-19 11 -95 150 -110 204 -9 30 -2 106 10 106 3 0 15 -14 26 -30z m65 -10 c0
-5 -4 -10 -10 -10 -5 0 -10 5 -10 10 0 6 5 10 10 10 6 0 10 -4 10 -10z m220
-30 c0 -38 -12 -52 -25 -30 -9 14 4 70 16 70 5 0 9 -18 9 -40z m134 -55 c8
-32 14 -61 12 -62 -2 -2 -11 16 -21 39 -10 24 -25 51 -33 60 -8 10 -11 25 -8
34 11 28 32 -2 50 -71z m4986 -42 c11 -30 19 -57 17 -59 -5 -6 -57 99 -57 114
0 27 19 0 40 -55z m97 -25 c-3 -8 -6 -5 -6 6 -1 11 2 17 5 13 3 -3 4 -12 1
-19z m-5370 -237 c42 -35 79 -93 69 -110 -11 -18 -47 -20 -53 -3 -4 9 -15 26
-25 37 -10 11 -34 38 -53 59 -20 22 -35 50 -35 64 0 24 0 24 28 6 15 -9 46
-33 69 -53z m36 60 c25 -10 43 -49 28 -64 -10 -10 -83 51 -75 64 7 11 17 11
47 0z m644 -87 c-3 -3 -12 -4 -19 -1 -8 3 -5 6 6 6 11 1 17 -2 13 -5z m4811
-189 c3 -24 5 -25 16 -9 23 31 89 -3 175 -91 41 -41 78 -75 82 -75 4 0 9 -7
13 -15 6 -16 -32 7 -91 57 -72 60 -130 86 -199 87 -27 1 -33 6 -44 40 -7 21
-9 44 -5 51 11 18 49 -13 53 -45z m-2411 -11 c-3 -3 -12 -4 -19 -1 -8 3 -5 6
6 6 11 1 17 -2 13 -5z m-2807 -54 c0 -5 -4 -10 -10 -10 -5 0 -10 5 -10 10 0 6
5 10 10 10 6 0 10 -4 10 -10z m5358 -59 c60 -41 118 -99 108 -108 -8 -8 -86
18 -86 29 0 4 6 8 13 8 8 0 7 4 -3 10 -8 5 -29 10 -45 10 -20 0 -39 10 -58 29
-15 17 -36 33 -47 36 -23 7 -26 21 -7 29 24 11 69 -4 125 -43z m-108 -37 c0
-25 -35 -12 -38 14 -3 21 -1 22 17 12 12 -6 21 -18 21 -26z m-2151 -26 c-8
-14 -14 -18 -17 -10 -4 13 17 46 25 38 3 -2 -1 -15 -8 -28z m-9 -75 c-11 -17
-11 -17 -6 0 3 10 6 24 7 30 0 9 2 9 5 0 3 -7 0 -20 -6 -30z m80 17 c0 -5 -7
-10 -16 -10 -8 0 -12 5 -9 10 3 6 10 10 16 10 5 0 9 -4 9 -10z m-25 -40 c-3
-5 -11 -10 -16 -10 -6 0 -7 5 -4 10 3 6 11 10 16 10 6 0 7 -4 4 -10z m-65
-104 c0 -3 -4 -8 -10 -11 -5 -3 -10 -1 -10 4 0 6 5 11 10 11 6 0 10 -2 10 -4z
m-6 -51 c-23 -36 3 -34 34 3 17 19 20 21 13 6 -12 -24 -77 -84 -91 -84 -13 0
-13 17 0 25 6 4 8 16 5 26 -8 24 11 49 36 49 18 0 19 -1 3 -25z m-904 -125
c12 -8 12 -10 -5 -10 -11 0 -27 5 -35 10 -12 8 -12 10 5 10 11 0 27 -5 35 -10z
m800 -44 c0 -2 -7 -7 -16 -10 -8 -3 -12 -2 -9 4 6 10 25 14 25 6z m85 -15
c-37 -15 -91 -24 -80 -13 12 12 40 19 75 20 22 1 23 0 5 -7z m-137 -8 c-9 -2
-16 -13 -15 -24 1 -21 12 -25 22 -9 8 13 105 13 105 -1 0 -5 -4 -7 -10 -4 -6
3 -7 -1 -4 -9 4 -11 0 -16 -11 -16 -9 0 -13 -4 -10 -10 3 -5 16 -10 27 -10 47
0 -6 -18 -69 -23 -11 -1 -19 -5 -16 -9 4 -7 -11 -12 -29 -9 -4 0 -33 2 -65 3
-32 1 -86 12 -119 24 -35 13 -71 20 -84 17 -15 -4 -21 -2 -16 5 3 6 1 14 -5
18 -8 4 -9 3 -5 -4 10 -17 -11 -15 -40 5 -17 11 -28 13 -32 6 -5 -8 -19 -5
-42 8 l-35 20 30 -5 c52 -9 175 -12 175 -4 0 4 19 7 43 7 23 0 69 6 102 14 52
13 148 22 103 10z m179 -65 c-3 -8 -6 -5 -6 6 -1 11 2 17 5 13 3 -3 4 -12 1
-19z m-72 -68 c-19 -8 -18 -9 4 -9 13 -1 22 -4 18 -7 -3 -4 -28 -3 -54 1 -38
6 -44 9 -28 16 11 4 34 8 50 8 26 0 27 -2 10 -9z m-342 -7 c-7 -2 -19 -2 -25
0 -7 3 -2 5 12 5 14 0 19 -2 13 -5z m225 -10 c-10 -2 -26 -2 -35 0 -10 3 -2 5
17 5 19 0 27 -2 18 -5z m3003 -25 c11 -21 11 -22 -4 -9 -10 7 -17 17 -17 22 0
15 9 10 21 -13z m223 -14 c5 -14 4 -15 -9 -4 -17 14 -19 20 -6 20 5 0 12 -7
15 -16z m-3241 -1 c-7 -2 -19 -2 -25 0 -7 3 -2 5 12 5 14 0 19 -2 13 -5z m115
-10 c-10 -2 -26 -2 -35 0 -10 3 -2 5 17 5 19 0 27 -2 18 -5z m3102 -38 c0 -7
7 -18 15 -25 17 -14 20 -30 5 -30 -5 0 -19 19 -30 42 -24 50 -25 54 -5 38 8
-7 15 -18 15 -25z m-3187 8 c-7 -2 -19 -2 -25 0 -7 3 -2 5 12 5 14 0 19 -2 13
-5z m44 1 c-3 -3 -12 -4 -19 -1 -8 3 -5 6 6 6 11 1 17 -2 13 -5z m-82 -44
c-82 -11 -176 -10 -200 0 -12 5 34 8 120 8 111 -1 128 -2 80 -8z m45 -50 l25
-8 -25 0 c-14 -1 -43 3 -65 7 l-40 9 40 0 c22 0 51 -4 65 -8z m3416 -437 c24
-50 48 -113 53 -140 5 -26 15 -61 21 -78 12 -32 27 -195 17 -195 -13 0 -67
173 -61 196 4 16 -3 44 -21 82 -15 31 -32 82 -37 112 -6 30 -19 78 -29 105
-28 75 2 31 57 -82z m134 -514 c0 -10 -4 -19 -10 -19 -5 0 -10 12 -10 26 0 14
4 23 10 19 6 -3 10 -15 10 -26z m0 -85 c0 -8 -5 -12 -10 -9 -6 4 -8 11 -5 16
9 14 15 11 15 -7z m-3106 -390 c3 -8 2 -12 -4 -9 -6 3 -10 10 -10 16 0 14 7
11 14 -7z m13 -406 c-3 -8 -6 -5 -6 6 -1 11 2 17 5 13 3 -3 4 -12 1 -19z
m1739 -136 c-4 -3 -14 2 -24 12 -16 18 -16 18 6 6 13 -6 21 -14 18 -18z m-479
-444 c-3 -8 -6 -5 -6 6 -1 11 2 17 5 13 3 -3 4 -12 1 -19z m150 -170 c-3 -8
-6 -5 -6 6 -1 11 2 17 5 13 3 -3 4 -12 1 -19z m-1133 -923 c-4 -8 -8 -15 -10
-15 -2 0 -4 7 -4 15 0 8 4 15 10 15 5 0 7 -7 4 -15z m1445 -1998 c6 -8 8 -16
5 -19 -10 -10 -44 4 -44 18 0 18 24 18 39 1z m119 -600 c5 -26 -16 -47 -49
-47 -35 0 -42 11 -29 45 8 22 15 26 42 23 22 -2 34 -9 36 -21z m642 6 c14 -9
28 -21 31 -25 3 -5 15 -10 26 -11 23 -1 54 -58 43 -77 -8 -12 -60 27 -112 85
-42 45 -35 60 12 28z m-730 -127 c0 -7 -11 -21 -25 -30 -21 -14 -25 -14 -25
-2 0 28 12 46 31 46 10 0 19 -6 19 -14z m875 -26 c3 -5 1 -10 -4 -10 -6 0 -11
5 -11 10 0 6 2 10 4 10 3 0 8 -4 11 -10z m165 -130 c0 -5 -9 -10 -20 -10 -11
0 -20 5 -20 10 0 6 9 10 20 10 11 0 20 -4 20 -10z"/>
<path d="M8080 8740 c0 -5 5 -10 10 -10 6 0 10 5 10 10 0 6 -4 10 -10 10 -5 0
-10 -4 -10 -10z"/>
<path d="M2865 8340 c3 -5 8 -10 11 -10 2 0 4 5 4 10 0 6 -5 10 -11 10 -5 0
-7 -4 -4 -10z"/>
<path d="M2830 8036 c0 -13 7 -27 16 -30 12 -5 15 -2 10 10 -3 8 -6 22 -6 30
0 8 -4 14 -10 14 -5 0 -10 -11 -10 -24z"/>
<path d="M5935 6819 c22 -10 47 -18 55 -18 8 0 -7 9 -35 19 -63 25 -73 24 -20
-1z"/>
<path d="M6005 6790 c-3 -5 0 -10 8 -10 8 0 36 -2 63 -5 l49 -6 -40 15 c-47
18 -71 20 -80 6z"/>
<path d="M546 9405 c-3 -8 -1 -15 4 -15 6 0 10 7 10 15 0 8 -2 15 -4 15 -2 0
-6 -7 -10 -15z"/>
<path d="M492 9381 c-7 -4 -14 -21 -15 -37 -1 -16 -5 -31 -8 -34 -3 -3 -9 -22
-13 -42 l-7 -38 56 0 c37 0 55 4 55 13 0 7 9 18 20 25 22 14 27 57 9 94 -8 18
-19 24 -48 25 -20 1 -42 -2 -49 -6z"/>
<path d="M0 9152 c0 -42 3 -52 17 -52 51 0 143 -23 143 -36 0 -11 4 -12 19 -4
11 5 32 10 48 10 21 1 36 11 61 44 17 24 32 46 32 49 0 4 -15 7 -33 7 -18 0
-38 5 -43 10 -6 6 -63 13 -127 17 l-117 6 0 -51z"/>
<path d="M8365 7850 c16 -32 35 -48 35 -30 0 19 -19 47 -35 54 -14 5 -14 2 0
-24z"/>
<path d="M5828 7463 c7 -3 16 -2 19 1 4 3 -2 6 -13 5 -11 0 -14 -3 -6 -6z"/>
<path d="M5990 7451 c0 -4 11 -6 25 -3 14 2 25 6 25 8 0 2 -11 4 -25 4 -14 0
-25 -4 -25 -9z"/>
<path d="M2970 7379 c0 -5 5 -7 10 -4 6 3 10 8 10 11 0 2 -4 4 -10 4 -5 0 -10
-5 -10 -11z"/>
<path d="M5340 7055 c0 -13 31 -36 41 -33 7 2 0 12 -15 21 -14 10 -26 15 -26
12z"/>
<path d="M0 4271 l0 -2770 27 -20 c30 -24 95 -43 201 -60 86 -13 138 -37 198
-93 59 -54 77 -113 62 -198 -6 -33 -15 -60 -20 -60 -4 0 -8 -7 -8 -16 0 -19
-64 -79 -112 -104 -89 -47 -188 -129 -188 -156 0 -6 7 -31 16 -55 18 -50 12
-124 -12 -171 -21 -40 -93 -108 -131 -125 l-33 -13 0 -215 0 -215 1013 0
c1096 0 1042 -2 1102 51 11 9 47 32 80 50 33 17 85 52 115 77 64 52 241 141
296 148 22 3 56 12 77 20 20 8 40 14 42 14 9 0 5 -19 -7 -32 -20 -21 -38 -56
-38 -73 0 -28 47 -48 98 -42 56 7 182 69 182 90 0 4 9 17 19 29 25 26 43 106
30 129 -15 28 -11 36 37 83 25 25 43 50 39 56 -9 14 -47 12 -70 -4 -35 -23
-210 -45 -290 -36 -135 16 -507 -9 -605 -41 -110 -35 -195 -69 -198 -79 -2 -6
-16 -10 -31 -10 -15 0 -31 -4 -36 -9 -41 -36 -275 -36 -298 0 -7 11 -17 19
-23 19 -6 0 -28 13 -50 30 -21 16 -47 30 -57 30 -10 0 -22 11 -27 24 -4 13
-20 32 -34 44 -14 11 -26 26 -26 33 0 7 -6 20 -14 28 -14 17 -34 87 -43 155
-4 26 -1 41 8 47 11 7 14 45 13 181 -2 156 -14 289 -44 458 -22 126 -31 488
-19 775 5 110 11 339 14 509 3 170 8 313 12 319 3 5 10 55 15 111 19 233 52
446 69 446 5 0 9 14 9 30 0 28 2 30 40 30 29 0 40 -4 40 -15 0 -8 6 -12 14 -9
7 3 25 -8 38 -25 30 -35 40 -98 33 -211 -5 -105 13 -289 33 -323 15 -24 15
-29 2 -37 -13 -8 -12 -11 4 -23 11 -8 20 -28 21 -48 1 -19 4 -42 8 -51 15 -38
16 -48 4 -45 -7 1 -15 -18 -20 -48 -4 -27 -12 -64 -18 -81 -12 -40 -12 -104 1
-104 6 0 10 -11 10 -25 0 -23 10 -30 33 -26 5 1 24 -12 43 -29 29 -25 39 -28
54 -20 11 6 20 14 20 19 0 4 16 25 35 47 44 49 50 80 35 180 -7 43 -11 100
-10 127 0 26 -3 47 -9 47 -7 0 -7 9 0 28 7 15 15 36 19 47 17 43 18 314 2 370
-6 22 -12 87 -13 145 -1 88 2 114 19 153 17 37 19 53 11 82 -6 19 -9 41 -7 47
4 23 -13 88 -22 88 -6 0 -10 7 -10 15 0 8 -5 14 -12 12 -6 -1 -14 7 -16 18 -2
11 -22 38 -43 60 -22 22 -39 43 -39 47 0 5 -6 8 -12 8 -7 0 -30 18 -52 40 -21
22 -47 40 -56 40 -10 0 -21 6 -23 13 -4 10 -6 10 -6 0 -1 -7 -5 -13 -10 -13
-17 0 -61 -46 -61 -64 0 -9 -4 -16 -10 -16 -12 0 -14 76 -2 83 4 2 2 3 -4 1
-6 -1 -17 3 -23 9 -14 14 -15 67 -1 67 6 0 10 11 10 24 0 30 22 73 46 91 25
19 27 18 51 -4 21 -20 21 -19 43 4 14 14 24 43 29 79 4 31 15 64 24 74 9 10
22 42 29 72 6 30 15 57 19 60 3 3 9 22 13 43 4 21 13 37 21 37 9 0 18 21 25
58 7 31 26 86 43 122 17 36 30 69 29 73 -3 9 5 35 39 137 10 30 21 66 23 80 3
14 12 47 21 74 8 27 15 60 15 73 0 12 3 23 8 23 16 0 32 110 37 255 6 144 0
226 -25 325 -23 92 -23 156 -2 237 11 43 32 150 47 238 14 88 30 174 36 190 5
17 11 55 14 86 4 52 3 57 -28 86 -64 59 -105 72 -285 89 -92 8 -203 19 -247
24 -402 47 -1262 121 -1407 120 l-28 0 0 -2769z m1244 2263 c28 -14 64 -40 79
-57 75 -84 73 -287 -5 -382 -48 -58 -120 -90 -203 -89 -92 0 -149 26 -223 102
-52 51 -60 65 -72 121 -29 139 46 271 182 322 73 27 170 20 242 -17z"/>
<path d="M5510 7016 c0 -2 18 -6 39 -8 22 -2 37 0 35 4 -5 8 -74 11 -74 4z"/>
<path d="M5745 7000 c19 -8 113 -14 104 -6 -2 2 -31 6 -64 9 -38 4 -53 3 -40
-3z"/>
<path d="M5568 6963 c7 -3 16 -2 19 1 4 3 -2 6 -13 5 -11 0 -14 -3 -6 -6z"/>
<path d="M5600 6812 c0 -5 7 -15 15 -22 8 -7 15 -9 15 -6 0 4 -7 14 -15 22 -8
9 -15 11 -15 6z"/>
<path d="M5688 6773 c7 -3 16 -2 19 1 4 3 -2 6 -13 5 -11 0 -14 -3 -6 -6z"/>
<path d="M2770 6710 c0 -5 5 -10 11 -10 5 0 7 5 4 10 -3 6 -8 10 -11 10 -2 0
-4 -4 -4 -10z"/>
<path d="M5748 6673 c6 -2 18 -2 25 0 6 3 1 5 -13 5 -14 0 -19 -2 -12 -5z"/>
<path d="M2506 6653 c-10 -26 -6 -60 8 -72 12 -10 15 -8 18 10 4 27 28 38 28
12 1 -14 3 -13 15 7 18 32 18 40 0 40 -8 0 -15 3 -15 8 0 14 -49 10 -54 -5z"/>
<path d="M5928 6643 c6 -2 18 -2 25 0 6 3 1 5 -13 5 -14 0 -19 -2 -12 -5z"/>
<path d="M5658 6593 c7 -3 16 -2 19 1 4 3 -2 6 -13 5 -11 0 -14 -3 -6 -6z"/>
<path d="M9470 6561 c0 -6 4 -13 10 -16 6 -3 7 1 4 9 -7 18 -14 21 -14 7z"/>
<path d="M9560 6405 c0 -5 5 -17 10 -25 5 -8 10 -10 10 -5 0 6 -5 17 -10 25
-5 8 -10 11 -10 5z"/>
<path d="M9830 6159 c0 -18 -7 -40 -16 -50 -33 -37 -28 -159 14 -329 14 -60
44 -111 57 -98 7 6 34 283 35 342 0 45 -44 142 -71 157 -17 8 -19 6 -19 -22z"/>
<path d="M4370 5990 c0 -5 5 -10 10 -10 6 0 10 5 10 10 0 6 -4 10 -10 10 -5 0
-10 -4 -10 -10z"/>
<path d="M4048 5959 c-21 -11 -38 -24 -38 -29 0 -6 -9 -10 -20 -10 -16 0 -20
-7 -20 -30 0 -16 -4 -30 -9 -30 -5 0 -12 -13 -16 -29 -3 -16 -13 -32 -21 -35
-17 -7 -19 15 -1 33 7 9 7 11 1 8 -19 -11 -24 19 -6 44 15 21 16 22 23 3 6
-15 8 -13 8 12 1 16 6 35 13 42 24 24 -9 11 -41 -16 -29 -24 -34 -35 -35 -75
-1 -55 -7 -59 -23 -17 -6 17 -19 30 -28 30 -15 0 -16 -7 -11 -57 4 -32 10 -67
13 -78 3 -13 -10 -4 -36 25 -32 33 -44 41 -50 31 -7 -11 -11 -10 -19 5 -6 11
-14 15 -19 10 -4 -5 -2 -11 5 -13 22 -8 13 -25 -10 -17 -22 6 -22 6 -5 -13 25
-28 21 -40 -5 -16 -13 11 -29 24 -37 28 -21 12 -2 -16 26 -39 16 -12 22 -24
18 -37 -5 -15 -3 -17 10 -12 10 3 21 0 25 -8 5 -7 12 -10 16 -6 4 4 0 15 -9
25 -10 10 -17 23 -17 28 1 5 10 -2 22 -16 21 -24 21 -24 15 -2 -3 13 -1 20 5
16 5 -3 6 -20 3 -37 -5 -26 -4 -29 5 -14 13 20 32 14 23 -8 -3 -9 1 -16 8 -17
8 0 19 -2 24 -3 6 -2 20 -3 33 -4 14 -1 20 -5 17 -12 -4 -5 -14 -9 -23 -7 -14
3 -71 -39 -61 -45 2 -1 12 -6 22 -12 10 -5 18 -13 18 -17 -1 -5 -1 -19 -1 -33
0 -18 -5 -25 -19 -25 -22 0 -37 -17 -26 -28 4 -4 10 -1 12 6 7 18 22 14 19 -5
-2 -10 -12 -19 -24 -21 -11 -2 -26 -10 -33 -18 -12 -15 -19 -85 -8 -78 12 7
58 -21 63 -38 4 -19 49 -41 78 -40 11 0 15 -5 11 -14 -4 -11 4 -14 33 -15 22
0 48 -2 59 -4 29 -6 106 -8 130 -4 16 3 21 -2 23 -25 2 -15 -2 -41 -8 -57 -18
-43 -2 -56 76 -61 50 -3 70 -9 80 -23 8 -10 14 -14 14 -9 0 6 -5 15 -11 21
-15 15 43 32 106 31 28 -1 42 -4 33 -6 -10 -2 -18 -8 -18 -13 0 -5 -8 -9 -17
-9 -13 0 -14 -3 -5 -12 9 -9 18 -10 30 -2 20 12 84 3 65 -9 -7 -5 -13 -15 -13
-23 0 -14 2 -13 16 0 14 15 36 21 59 16 6 -1 4 4 -2 11 -16 16 -17 29 -2 29 5
0 7 -4 4 -10 -3 -5 1 -10 9 -10 8 0 18 5 22 11 3 6 17 9 30 6 13 -2 21 0 18 4
-3 5 23 9 57 9 62 0 62 0 44 -20 -10 -11 -15 -23 -12 -26 4 -4 9 1 13 10 3 9
13 16 21 16 8 0 12 4 9 9 -3 5 1 12 10 15 29 11 55 6 61 -11 4 -10 15 -26 24
-36 16 -17 16 -17 12 10 -4 23 -2 25 7 13 9 -11 13 -12 17 -2 6 14 33 16 33 2
0 -5 9 -10 21 -10 13 0 18 4 13 12 -5 8 2 9 26 5 18 -4 36 -7 41 -7 5 0 9 -6
9 -13 0 -8 13 -12 38 -11 20 0 42 -3 49 -8 7 -5 21 -7 33 -3 12 4 27 2 34 -4
10 -9 15 -7 20 5 6 16 8 16 25 0 14 -13 21 -14 26 -6 6 9 9 9 15 0 4 -7 20
-14 35 -15 15 -2 34 -10 43 -17 10 -8 39 -24 66 -37 39 -19 53 -22 68 -12 10
6 18 8 18 4 0 -5 14 -8 30 -9 30 -1 30 -1 13 19 -17 20 -17 20 2 13 36 -14
142 -27 186 -24 l44 4 -40 7 c-92 18 -219 65 -234 86 -8 12 -10 21 -5 20 5 -1
22 -1 37 0 38 1 25 19 -21 27 -46 8 -87 33 -148 92 -7 6 -19 12 -27 12 -7 0
-24 11 -37 25 -13 13 -54 40 -91 59 -38 18 -65 36 -62 40 4 3 -3 7 -15 7 -30
2 -34 3 -57 16 -11 6 -37 14 -58 18 -20 4 -37 12 -37 17 0 6 -9 8 -20 5 -11
-3 -20 -1 -20 5 0 6 -7 8 -15 4 -9 -3 -59 3 -113 14 -178 34 -277 43 -409 37
-82 -4 -129 -11 -134 -19 -6 -9 -13 -9 -33 0 -14 6 -32 9 -40 6 -8 -3 -17 -1
-20 4 -3 6 6 13 20 16 20 5 23 10 14 20 -8 11 -8 15 2 19 10 4 10 8 -2 16 -12
9 -11 11 8 11 21 0 27 9 23 38 -3 18 17 47 74 109 27 29 53 49 58 46 6 -3 16
2 23 11 13 18 47 24 149 29 28 1 55 4 60 7 18 9 246 -1 240 -10 -3 -6 22 -8
60 -6 36 1 68 -1 71 -6 3 -4 0 -8 -6 -8 -6 0 -9 -4 -6 -8 9 -15 68 -1 62 14
-3 8 -1 14 4 14 6 0 10 4 10 10 0 5 -3 9 -7 9 -19 -3 -86 1 -82 5 10 11 61 14
89 6 17 -5 30 -5 30 0 0 5 -17 12 -37 16 -21 4 -46 11 -55 16 -19 9 -125 20
-194 19 -33 0 -41 4 -40 17 1 14 -7 17 -44 16 -25 -1 -36 1 -24 3 21 4 20 5
-5 32 -26 28 -111 52 -111 32 0 -15 -71 -2 -113 21 -38 20 -89 21 -129 4 -13
-6 -18 -4 -18 9 0 9 -5 13 -10 10 -6 -4 -46 -7 -90 -8 -66 -2 -82 -5 -94 -22
-8 -11 -18 -16 -22 -12 -5 4 -2 13 6 18 16 12 18 12 -35 -6 -20 -7 -20 -6 -1
9 30 24 16 26 -26 5z m-198 -142 c0 -18 -2 -19 -10 -7 -13 20 -13 43 0 35 6
-3 10 -16 10 -28z m345 -227 c3 -5 1 -10 -4 -10 -6 0 -11 5 -11 10 0 6 2 10 4
10 3 0 8 -4 11 -10z m-25 -54 c0 -3 -4 -8 -10 -11 -5 -3 -10 -1 -10 4 0 6 5
11 10 11 6 0 10 -2 10 -4z m-295 -246 c-27 -12 -35 -12 -35 0 0 6 12 10 28 9
24 0 25 -1 7 -9z m615 -80 c1 8 10 -7 20 -34 11 -28 18 -52 16 -54 -3 -2 -15
0 -28 4 -13 4 -28 7 -35 6 -19 -4 -25 16 -11 40 12 22 13 26 17 46 1 4 6 0 11
-8 9 -13 10 -13 10 0z"/>
<path d="M2560 5900 c0 -5 -13 -7 -30 -3 -26 5 -29 3 -24 -12 6 -14 3 -16 -14
-11 -12 3 -30 8 -39 11 -11 3 -31 -7 -50 -25 -18 -17 -34 -30 -37 -30 -4 0
-15 -9 -25 -19 -14 -14 -16 -21 -8 -25 8 -3 6 -5 -3 -6 -8 0 -23 -12 -34 -26
-15 -22 -16 -28 -5 -36 11 -7 10 -8 -5 -6 -16 3 -19 -6 -22 -69 l-4 -73 30 6
c16 4 46 22 66 41 28 26 39 31 45 21 7 -9 11 -10 17 -2 10 17 67 21 84 7 7 -7
33 -12 56 -11 25 0 50 -6 60 -15 9 -8 37 -18 61 -22 24 -4 52 -16 62 -26 10
-10 24 -19 30 -19 5 0 8 -4 5 -9 -3 -5 5 -16 19 -25 14 -9 25 -26 25 -37 0
-12 8 -23 20 -26 27 -7 25 -22 -4 -33 -13 -5 -26 -14 -28 -20 -2 -7 -35 -11
-88 -12 -151 0 -309 -35 -345 -74 -5 -6 -25 -21 -43 -33 -27 -19 -31 -26 -21
-38 10 -11 10 -16 0 -23 -8 -4 -11 -16 -6 -29 6 -19 3 -20 -27 -16 -26 4 -28
3 -8 -3 16 -5 21 -10 13 -15 -17 -11 -4 -37 18 -37 23 0 23 -8 4 -34 -21 -28
-19 -38 5 -24 17 11 22 10 29 -1 5 -8 7 -20 4 -27 -3 -7 5 -23 16 -35 12 -13
21 -30 21 -39 0 -25 11 -31 27 -15 16 17 53 20 53 5 0 -16 117 -12 150 5 18 9
30 11 32 4 5 -16 453 434 472 476 16 33 16 40 2 82 -9 26 -16 56 -16 68 0 12
-9 34 -20 48 -13 17 -17 28 -10 32 13 8 -16 45 -35 45 -7 0 -18 6 -24 14 -6 7
-25 16 -42 20 -17 3 -44 17 -61 31 -16 14 -37 25 -45 25 -9 0 -22 8 -29 18
-12 14 -15 15 -23 3 -8 -12 -19 -7 -63 27 -29 23 -54 37 -56 32 -6 -16 -27
-11 -46 11 -14 17 -20 19 -26 8 -7 -10 -14 -10 -34 -1 -15 7 -26 8 -26 2z
m-170 -90 c0 -5 -4 -10 -10 -10 -5 0 -10 5 -10 10 0 6 5 10 10 10 6 0 10 -4
10 -10z m90 0 c0 -5 -18 -10 -41 -10 -24 0 -38 4 -34 10 3 6 22 10 41 10 19 0
34 -4 34 -10z m81 -790 c6 -16 15 -30 21 -30 5 0 7 -4 3 -9 -6 -10 -71 -3 -95
10 -12 6 -10 8 8 9 15 0 26 9 32 25 12 33 19 32 31 -5z"/>
<path d="M4881 5882 c-1 -9 -12 -10 -41 -6 -22 4 -40 4 -40 0 0 -13 73 -35
103 -32 18 2 39 4 47 5 23 2 -9 21 -37 21 -12 0 -24 6 -26 13 -4 9 -6 9 -6 -1z"/>
<path d="M5073 5723 c22 -6 22 -23 0 -23 -9 0 -13 -3 -9 -7 3 -4 32 -7 64 -8
31 -1 71 -5 87 -10 27 -7 28 -6 15 7 -16 16 -124 49 -156 47 -16 -1 -17 -2 -1
-6z"/>
<path d="M3676 5706 c3 -9 11 -16 16 -16 13 0 5 23 -10 28 -7 2 -10 -2 -6 -12z"/>
<path d="M5340 5690 c8 -5 20 -10 25 -10 6 0 3 5 -5 10 -8 5 -19 10 -25 10 -5
0 -3 -5 5 -10z"/>
<path d="M5178 5659 c9 -10 47 -16 122 -19 93 -4 113 -8 140 -28 17 -13 34
-22 36 -19 2 2 -13 16 -34 30 -33 24 -50 27 -146 32 -60 3 -114 8 -120 12 -6
3 -5 0 2 -8z"/>
<path d="M3700 5655 c0 -13 31 -36 41 -33 7 2 0 12 -15 21 -14 10 -26 15 -26
12z"/>
<path d="M4707 5063 c-4 -3 -7 -16 -6 -27 0 -19 1 -19 10 3 10 24 8 36 -4 24z"/>
<path d="M4590 5044 c0 -14 3 -14 15 -4 8 7 15 14 15 16 0 2 -7 4 -15 4 -8 0
-15 -7 -15 -16z"/>
<path d="M6436 5031 c-4 -7 -5 -15 -2 -18 9 -9 19 4 14 18 -4 11 -6 11 -12 0z"/>
<path d="M4276 5012 c-3 -6 -1 -14 5 -18 8 -4 7 -9 -2 -16 -11 -8 -10 -9 4 -4
9 3 17 1 17 -5 0 -6 -9 -13 -20 -16 -33 -9 -12 -22 25 -16 23 4 35 2 35 -6 0
-6 -8 -11 -17 -11 -24 0 -4 -16 30 -24 18 -4 27 -2 28 6 0 7 5 1 11 -14 8 -23
14 -27 36 -23 22 4 23 4 7 -4 -21 -9 -23 -9 65 -41 43 -15 96 -23 85 -12 -5 6
-19 12 -30 15 -13 3 -9 5 12 6 17 0 34 -3 37 -8 16 -26 320 -21 330 5 9 23
-23 44 -67 43 -23 0 -36 -3 -29 -6 23 -9 2 -22 -22 -13 -13 5 -34 6 -47 3 -14
-4 -21 -2 -16 3 12 12 -124 33 -140 21 -8 -5 -33 3 -69 23 -34 18 -64 28 -75
25 -11 -4 -19 -2 -19 4 0 6 -6 11 -13 11 -8 0 -22 9 -32 20 -10 11 -20 18 -23
15 -3 -3 -11 0 -18 6 -8 7 -14 7 -19 -1 -10 -16 -25 -12 -25 7 0 9 -3 13 -7
10 -3 -4 -11 1 -18 10 -8 10 -14 12 -19 5z m209 -162 c3 -6 -1 -7 -9 -4 -18 7
-21 14 -7 14 6 0 13 -4 16 -10z"/>
<path d="M9746 4994 c-9 -23 -7 -82 2 -88 5 -3 9 19 10 49 1 58 -2 65 -12 39z"/>
<path d="M4240 4964 c0 -8 5 -12 10 -9 6 3 10 10 10 16 0 5 -4 9 -10 9 -5 0
-10 -7 -10 -16z"/>
<path d="M5260 4970 c0 -5 5 -10 10 -10 6 0 10 5 10 10 0 6 -4 10 -10 10 -5 0
-10 -4 -10 -10z"/>
<path d="M4505 4960 c3 -5 11 -10 16 -10 6 0 7 5 4 10 -3 6 -11 10 -16 10 -6
0 -7 -4 -4 -10z"/>
<path d="M4598 4928 c18 -18 136 -37 227 -38 65 0 86 3 78 11 -6 6 -36 12 -67
13 -36 1 -56 5 -56 13 0 9 -27 12 -96 11 -61 0 -92 -4 -86 -10z"/>
<path d="M5031 4888 c-11 -29 -10 -30 27 -17 43 15 50 39 11 39 -22 0 -32 -6
-38 -22z"/>
<path d="M9838 4710 c-2 -28 0 -40 9 -40 8 0 13 14 13 40 0 22 -4 40 -9 40 -5
0 -11 -18 -13 -40z"/>
<path d="M2765 4150 c-22 -4 -45 -17 -53 -29 -8 -11 -24 -21 -37 -21 -14 0
-26 -9 -34 -26 -10 -22 -16 -25 -39 -19 -15 3 -46 6 -70 5 -40 -1 -84 16 -124
49 -10 7 -24 11 -32 8 -9 -4 -18 -2 -22 4 -3 6 -18 9 -32 8 -15 -2 -33 0 -40
4 -38 25 25 -68 114 -164 23 -26 54 -68 67 -95 28 -54 100 -128 134 -138 12
-4 28 -20 35 -36 7 -17 17 -30 22 -30 4 0 6 -9 3 -21 -5 -17 -2 -20 14 -16 14
4 19 0 19 -14 0 -10 7 -19 15 -19 8 0 15 -4 15 -10 0 -5 13 -7 29 -4 16 4 32
1 35 -5 4 -6 12 -9 17 -6 5 4 9 -1 9 -9 0 -12 10 -16 40 -16 23 0 40 -5 40
-11 0 -8 5 -8 15 1 11 9 15 9 15 1 0 -7 5 -9 10 -6 6 4 8 16 4 27 -5 16 -3 20
9 15 11 -4 14 -2 10 9 -3 8 1 14 10 14 8 0 15 6 14 13 0 6 1 21 2 32 2 19 3
19 11 -2 5 -13 14 -23 20 -23 6 0 8 5 5 11 -9 13 27 8 37 -6 4 -6 13 -2 23 10
15 20 15 20 30 1 8 -11 15 -14 15 -8 0 16 32 15 49 0 10 -9 15 -10 18 -2 4 12
53 7 53 -6 0 -4 12 -10 26 -13 18 -3 24 -1 20 9 -4 11 5 14 38 14 81 0 217 29
246 53 15 12 37 29 49 37 49 33 81 68 81 88 0 11 4 24 10 27 14 9 7 41 -15 65
-21 23 -35 26 -35 8 -1 -14 -34 -58 -44 -58 -3 0 -6 7 -6 17 0 15 -1 15 -18 0
-10 -10 -24 -17 -30 -17 -7 0 -12 -8 -12 -19 0 -15 -10 -19 -47 -24 -27 -2
-55 -8 -63 -11 -9 -4 -23 1 -33 11 -154 161 -215 207 -311 239 -33 10 -78 31
-100 46 -23 15 -47 28 -54 28 -7 0 -25 6 -40 14 -38 20 -90 26 -137 16z m-140
-174 c0 -25 7 -45 23 -61 16 -17 22 -31 17 -45 -7 -21 -32 -22 -28 -1 2 6 -5
25 -15 43 -21 37 -34 92 -25 102 15 15 28 -3 28 -38z m91 -143 c-11 -11 -17 4
-9 23 7 18 8 18 11 1 2 -10 1 -21 -2 -24z m84 18 c-5 -11 -7 -26 -4 -34 6 -17
-15 -34 -25 -20 -3 5 -14 12 -23 16 -27 10 -22 21 20 39 20 9 38 17 40 17 1 1
-2 -8 -8 -18z m358 -54 c23 -5 42 -14 42 -19 0 -4 11 -8 25 -8 30 0 33 -15 5
-30 -11 -6 -20 -17 -20 -24 0 -9 -8 -12 -25 -8 -14 2 -25 8 -25 13 0 5 -8 9
-17 9 -37 1 -67 27 -69 60 -2 28 1 31 20 25 11 -4 40 -12 64 -18z"/>
<path d="M8192 4070 c0 -19 2 -27 5 -17 2 9 2 25 0 35 -3 9 -5 1 -5 -18z"/>
<path d="M8193 3990 c0 -25 2 -35 4 -22 2 12 2 32 0 45 -2 12 -4 2 -4 -23z"/>
<path d="M3725 3910 c3 -5 13 -10 21 -10 8 0 12 5 9 10 -3 6 -13 10 -21 10 -8
0 -12 -4 -9 -10z"/>
<path d="M6550 3580 c0 -11 40 -50 52 -50 4 0 8 5 8 10 0 6 -4 10 -10 10 -5 0
-19 9 -30 20 -11 11 -20 16 -20 10z"/>
<path d="M7213 3425 c0 -27 2 -38 4 -22 2 15 2 37 0 50 -2 12 -4 0 -4 -28z"/>
<path d="M2713 2920 c-13 -10 -23 -23 -23 -29 0 -6 -7 -11 -15 -11 -8 0 -15 7
-15 15 0 8 -7 15 -15 15 -8 0 -15 -4 -15 -10 0 -5 -13 -10 -28 -10 -32 0 -52
-16 -52 -42 0 -11 -10 -20 -27 -23 -16 -4 -37 -8 -47 -10 -11 -2 -26 1 -33 6
-9 8 -17 6 -29 -6 -29 -28 -13 -205 18 -205 4 0 33 16 65 35 55 33 63 35 148
35 50 0 115 -6 147 -14 48 -11 66 -11 120 2 85 19 392 27 500 13 83 -11 142
-33 179 -67 18 -16 19 -16 19 4 0 26 0 26 45 5 25 -12 34 -22 30 -32 -4 -10 3
-7 18 7 23 22 57 22 57 0 0 -5 -4 -7 -9 -4 -5 4 -7 -3 -4 -14 7 -26 25 -38 21
-14 -2 12 3 19 14 19 9 0 20 4 24 8 4 4 16 7 27 7 16 0 18 -5 13 -26 -8 -30
-24 -29 154 -5 90 12 100 18 100 53 0 38 -36 69 -139 119 -31 15 -46 18 -54
10 -14 -14 -37 -14 -37 -1 0 6 8 10 17 10 13 0 14 3 6 11 -7 7 -19 8 -30 4
-39 -17 -71 -13 -146 16 -43 16 -82 27 -88 24 -5 -4 -26 3 -47 14 -20 11 -57
22 -82 24 -25 2 -52 7 -60 11 -10 4 -25 -2 -39 -15 -17 -17 -25 -19 -31 -9
-11 18 -91 24 -102 8 -5 -10 -12 -7 -24 10 -11 16 -22 21 -35 17 -11 -4 -19
-2 -19 5 0 6 -5 8 -11 5 -6 -4 -8 -13 -5 -21 6 -16 -10 -19 -19 -4 -4 6 -35
10 -70 8 -50 -2 -68 2 -84 16 -11 10 -25 15 -30 11 -6 -3 -11 1 -11 9 0 9 -5
16 -11 16 -5 0 -8 -4 -5 -9 7 -11 -44 -9 -63 3 -10 6 -12 5 -7 -2 4 -7 3 -12
-3 -12 -19 0 -66 21 -73 33 -5 8 -8 7 -8 -5 0 -26 -17 -30 -37 -9 -17 19 -19
19 -40 1z m257 -56 c0 -14 -3 -14 -15 -4 -8 7 -15 14 -15 16 0 2 7 4 15 4 8 0
15 -7 15 -16z m-344 -31 c-10 -10 -19 5 -10 18 6 11 8 11 12 0 2 -7 1 -15 -2
-18z"/>
<path d="M7120 2859 c0 -17 4 -28 10 -24 6 3 10 17 10 31 0 13 -4 24 -10 24
-5 0 -10 -14 -10 -31z"/>
<path d="M2862 2314 c-10 -19 -23 -22 -89 -26 -51 -3 -89 0 -111 8 -24 10 -46
11 -83 4 -28 -6 -62 -7 -74 -4 -20 5 -23 3 -18 -15 3 -11 11 -26 19 -32 8 -6
14 -18 14 -25 0 -8 7 -14 15 -14 8 0 17 -11 21 -25 3 -14 10 -25 14 -25 5 0
12 -9 15 -21 4 -13 12 -18 22 -15 13 5 42 -12 94 -57 28 -24 175 -38 246 -23
35 8 70 19 78 26 8 7 21 10 29 7 8 -3 20 1 28 10 11 13 11 17 0 21 -10 3 -10
7 -1 18 15 19 33 18 25 -1 -3 -8 -2 -15 3 -15 13 0 32 26 24 33 -3 4 1 7 10 7
24 0 21 27 -4 35 -12 4 -18 13 -15 20 6 16 -25 8 -36 -9 -4 -6 -10 -7 -15 -3
-4 5 -1 12 7 17 15 9 7 25 -13 25 -7 0 -14 11 -15 24 -3 19 -6 21 -13 10 -8
-12 -11 -11 -19 3 -6 9 -17 15 -25 12 -25 -10 -114 16 -117 34 -3 14 -6 14
-16 -4z"/>
<path d="M6366 1511 c-4 -7 -5 -15 -2 -18 9 -9 19 4 14 18 -4 11 -6 11 -12 0z"/>
<path d="M6520 1480 c0 -5 5 -10 11 -10 5 0 7 5 4 10 -3 6 -8 10 -11 10 -2 0
-4 -4 -4 -10z"/>
<path d="M6350 1425 c-10 -12 -10 -15 4 -15 9 0 16 7 16 15 0 8 -2 15 -4 15
-2 0 -9 -7 -16 -15z"/>
<path d="M6164 1314 c-6 -19 -8 -37 -4 -39 8 -5 25 64 18 70 -2 2 -8 -12 -14
-31z"/>
<path d="M5940 1300 c0 -5 5 -10 10 -10 6 0 10 5 10 10 0 6 -4 10 -10 10 -5 0
-10 -4 -10 -10z"/>
<path d="M6357 1286 c-6 -15 1 -26 15 -26 4 0 8 9 8 20 0 23 -15 27 -23 6z"/>
<path d="M5910 1256 c0 -23 16 -27 17 -5 1 10 -2 19 -8 19 -5 0 -9 -6 -9 -14z"/>
<path d="M5996 1245 c-3 -8 -1 -15 4 -15 6 0 10 7 10 15 0 8 -2 15 -4 15 -2 0
-6 -7 -10 -15z"/>
<path d="M6206 1239 c-14 -11 -30 -18 -35 -15 -5 4 -12 -7 -16 -24 -8 -39 -40
-58 -48 -30 -4 17 -11 19 -38 13 -23 -4 -30 -3 -25 5 4 7 12 12 17 12 14 0 43
30 36 36 -3 3 -15 1 -26 -6 -12 -6 -21 -8 -21 -4 0 4 -10 -2 -23 -14 -13 -12
-27 -19 -30 -15 -4 3 -7 1 -7 -5 0 -7 -15 -12 -35 -12 -19 0 -35 5 -35 11 0 6
-8 1 -19 -12 -10 -13 -16 -30 -13 -39 5 -11 2 -11 -12 3 -10 10 -16 24 -13 31
3 7 0 19 -6 25 -9 9 -14 4 -23 -21 -7 -22 -17 -33 -30 -33 -10 0 -25 -4 -31
-8 -13 -8 -17 2 -14 36 1 9 -4 17 -13 17 -9 0 -16 5 -16 10 0 21 -16 9 -34
-25 -14 -26 -24 -34 -38 -29 -12 4 -18 0 -18 -11 0 -11 -5 -15 -15 -11 -8 3
-18 -2 -23 -10 -13 -24 -71 -32 -125 -18 -26 7 -65 11 -85 8 -20 -2 -49 -1
-64 2 -24 5 -26 8 -18 30 14 35 -9 31 -46 -7 -34 -36 -86 -67 -79 -47 3 7 0
20 -5 28 -9 13 -11 13 -20 0 -5 -8 -8 -20 -5 -27 6 -19 -8 -24 -81 -27 -40 -1
-69 -8 -74 -15 -6 -10 -13 -9 -34 4 -15 10 -26 13 -26 6 0 -5 -7 -8 -15 -5 -9
4 -15 0 -15 -10 0 -9 -7 -16 -15 -16 -8 0 -15 -5 -15 -11 0 -7 -10 -9 -26 -5
-18 5 -33 1 -47 -11 -14 -13 -21 -15 -24 -5 -6 15 -25 16 -41 0 -7 -7 -29 -13
-50 -14 -20 -1 -62 -10 -92 -19 -67 -22 -141 -28 -139 -12 3 27 -2 47 -11 47
-5 0 -10 -7 -10 -15 0 -8 -5 -15 -11 -15 -6 0 -9 7 -5 15 3 8 2 15 -3 15 -4 0
-13 10 -19 23 l-11 22 0 -22 c-1 -13 2 -23 7 -23 4 0 7 -11 7 -24 0 -13 -3
-22 -7 -19 -5 2 -8 0 -8 -5 0 -6 -11 -9 -25 -8 -20 1 -25 6 -25 28 0 14 6 29
13 31 7 3 8 6 1 6 -17 1 -64 -39 -64 -55 0 -17 -47 -19 -52 -2 -2 6 -25 13
-51 14 -35 2 -49 -1 -57 -14 -8 -12 -13 -14 -16 -4 -3 6 -12 12 -20 12 -8 0
-14 10 -14 23 0 22 0 22 -20 -3 -17 -23 -21 -24 -41 -11 -20 12 -24 11 -36 -5
-8 -11 -13 -13 -13 -5 0 9 -8 11 -24 7 -18 -4 -26 -2 -29 11 -3 14 -6 12 -15
-9 -12 -29 -26 -36 -37 -18 -9 15 -37 -9 -31 -26 3 -7 -2 -15 -10 -18 -12 -5
-14 1 -8 31 6 32 5 35 -11 29 -10 -3 -24 -1 -31 5 -11 9 -14 8 -14 -6 0 -14
-3 -15 -15 -5 -8 7 -15 20 -15 30 0 11 -10 19 -24 22 -19 4 -26 0 -30 -19 -4
-12 -11 -23 -16 -23 -14 0 -47 35 -54 57 -3 10 -4 5 -2 -11 3 -24 -7 -65 -21
-85 -4 -6 -33 21 -33 31 0 6 9 8 21 5 16 -4 20 -1 17 16 -3 21 -18 24 -55 12
-18 -6 -16 -45 2 -45 8 0 15 -7 15 -15 0 -25 -17 -17 -40 20 -12 19 -26 32
-32 29 -5 -3 -15 2 -22 11 -12 16 -16 16 -72 -1 -32 -10 -60 -22 -62 -26 -3
-7 -73 -1 -82 8 -3 3 -6 10 -6 15 -1 5 -2 12 -3 15 0 4 -8 1 -16 -6 -8 -7 -15
-9 -15 -4 0 4 -7 -1 -15 -12 -15 -18 -15 -18 -29 0 -8 10 -19 15 -24 12 -6 -3
-12 -1 -14 6 -3 7 -11 9 -24 3 -24 -10 -53 -13 -52 -6 2 20 -5 22 -24 5 -12
-10 -18 -13 -14 -6 4 6 3 12 -3 12 -5 0 -15 -8 -20 -17 -9 -16 -10 -15 -8 6 2
22 -3 25 -38 28 -22 2 -44 5 -50 7 -5 1 -16 -4 -23 -13 -11 -14 -12 -13 -7 7
6 21 5 23 -13 13 -28 -15 -35 -14 -28 5 3 8 2 12 -4 9 -6 -3 -10 -12 -10 -18
0 -21 -17 -40 -29 -32 -9 5 -9 10 0 22 25 30 -42 39 -78 11 -7 -6 -14 -4 -20
6 -4 8 -20 18 -35 21 -27 7 -35 -3 -29 -37 2 -16 -18 -7 -23 10 -8 25 -60 46
-84 33 -11 -6 -21 -8 -24 -6 -2 3 -3 -10 -1 -28 3 -24 2 -29 -6 -17 -6 8 -11
24 -11 34 0 16 -3 17 -12 8 -9 -9 -7 -19 10 -42 12 -16 22 -34 22 -40 0 -5 4
-10 9 -10 4 0 19 -10 33 -22 28 -26 47 -38 98 -68 19 -11 42 -24 50 -29 8 -5
33 -13 55 -19 22 -5 60 -17 85 -25 25 -9 106 -35 180 -58 186 -56 200 -61 193
-72 -3 -5 3 -7 13 -6 37 6 173 -30 198 -52 6 -5 1 -16 -11 -26 -30 -27 -56
-71 -48 -83 13 -21 46 -9 86 33 32 34 46 43 65 39 13 -2 27 -8 30 -13 3 -5 19
-9 36 -9 24 0 58 -16 97 -47 3 -2 -6 -14 -19 -28 l-24 -25 22 -30 c21 -27 21
-32 8 -57 -7 -16 -19 -46 -25 -67 -9 -33 -8 -43 5 -57 22 -25 4 -54 -43 -67
-21 -6 -73 -25 -117 -43 -79 -33 -116 -68 -116 -111 0 -17 29 -18 469 -18
l470 0 4 22 4 23 2 -22 c1 -22 5 -23 81 -23 62 0 80 3 80 14 0 8 7 16 15 20 8
3 15 12 15 20 0 7 -7 16 -15 20 -10 4 -15 20 -15 51 0 42 2 46 20 40 13 -4 22
-1 26 9 3 9 13 16 21 16 11 0 14 8 11 30 -3 18 0 31 9 34 7 3 13 12 13 20 0 7
7 16 15 20 9 3 15 19 15 41 0 32 13 48 22 27 2 -5 16 -12 31 -16 23 -6 30 -3
34 13 3 11 10 18 17 15 16 -6 36 38 29 64 -3 14 2 24 16 31 12 7 21 18 21 26
0 19 9 19 32 -1 13 -13 21 -14 32 -5 7 6 20 9 28 6 9 -4 20 4 28 20 8 14 20
23 27 21 7 -3 15 -1 18 4 15 24 133 -9 119 -33 -4 -7 -3 -9 1 -4 5 4 16 0 25
-8 9 -8 31 -18 48 -21 25 -5 32 -3 32 9 0 8 -6 18 -12 20 -9 4 -8 6 2 6 8 1
21 10 28 22 11 17 20 20 43 15 27 -5 30 -4 24 15 -4 11 -2 25 3 32 14 18 23
75 12 82 -6 3 -10 15 -10 27 0 19 5 20 51 16 42 -4 53 -2 62 13 7 11 17 19 23
19 7 0 14 7 18 15 3 9 18 14 40 13 20 -1 51 6 68 15 18 9 42 19 53 22 14 4 16
8 7 14 -24 15 13 33 52 25 26 -4 43 -2 61 10 13 9 34 16 45 16 13 0 24 9 30
24 11 29 31 42 85 51 22 4 58 18 80 30 52 28 92 39 132 36 28 -2 34 2 47 33
11 27 23 38 46 42 16 4 30 10 30 15 0 5 8 9 18 9 18 0 45 46 36 61 -3 5 2 9
11 9 10 0 13 5 9 12 -5 7 -3 8 6 3 17 -11 31 15 19 37 -12 23 -20 23 -53 -3z
m-26 -58 c0 -6 -4 -13 -10 -16 -5 -3 -10 1 -10 9 0 9 5 16 10 16 6 0 10 -4 10
-9z m-441 -53 c-11 -20 -18 -22 -37 -9 -11 6 -9 9 7 14 15 4 18 10 14 28 -5
23 -5 24 10 4 11 -14 12 -25 6 -37z m-2329 -173 c0 -8 -4 -15 -10 -15 -5 0
-10 7 -10 15 0 8 5 15 10 15 6 0 10 -7 10 -15z m1434 -374 c3 -5 -1 -14 -9
-21 -13 -10 -15 -9 -15 9 0 21 14 28 24 12z m36 -12 c0 -11 -4 -17 -10 -14 -5
3 -10 13 -10 21 0 8 5 14 10 14 6 0 10 -9 10 -21z m-1120 -138 c0 -5 8 -12 19
-16 36 -11 126 -174 146 -262 6 -29 4 -34 -18 -42 -14 -6 -35 -20 -46 -32
l-21 -23 0 32 c0 33 -21 52 -59 52 -11 0 -34 14 -51 32 -28 28 -31 36 -25 67
4 20 10 68 14 106 3 39 10 76 14 83 10 14 27 16 27 3z m863 -37 c-6 -17 -23
-9 -23 11 0 8 6 12 14 9 8 -3 12 -12 9 -20z m-143 -116 l18 -43 -26 -22 c-15
-13 -32 -23 -39 -23 -21 0 -27 23 -9 35 13 10 15 22 10 54 -5 34 -4 41 10 41
10 0 24 -17 36 -42z m-83 -64 c-3 -3 -12 -4 -19 -1 -8 3 -5 6 6 6 11 1 17 -2
13 -5z m3 -173 c0 -12 -29 -23 -41 -15 -5 3 -7 10 -4 15 8 12 45 12 45 0z"/>
<path d="M5936 1224 c-9 -22 3 -32 14 -14 12 19 12 30 1 30 -5 0 -12 -7 -15
-16z"/>
<path d="M5790 1220 c0 -5 5 -10 10 -10 6 0 10 5 10 10 0 6 -4 10 -10 10 -5 0
-10 -4 -10 -10z"/>
<path d="M6394 1185 c-11 -27 2 -37 14 -11 7 16 8 26 1 26 -5 0 -12 -7 -15
-15z"/>
<path d="M5540 1169 c0 -24 23 -21 28 4 2 10 -3 17 -12 17 -10 0 -16 -9 -16
-21z"/>
<path d="M3951 1134 c0 -11 3 -14 6 -6 3 7 2 16 -1 19 -3 4 -6 -2 -5 -13z"/>
<path d="M4360 1080 c0 -5 5 -10 10 -10 6 0 10 5 10 10 0 6 -4 10 -10 10 -5 0
-10 -4 -10 -10z"/>
<path d="M4965 1080 c-7 -12 2 -30 16 -30 5 0 9 9 9 20 0 21 -15 27 -25 10z"/>
<path d="M4200 1050 c0 -5 5 -10 11 -10 5 0 7 5 4 10 -3 6 -8 10 -11 10 -2 0
-4 -4 -4 -10z"/>
<path d="M4560 1029 c0 -5 5 -7 10 -4 6 3 10 8 10 11 0 2 -4 4 -10 4 -5 0 -10
-5 -10 -11z"/>
<path d="M3652 1010 c0 -14 2 -19 5 -12 2 6 2 18 0 25 -3 6 -5 1 -5 -13z"/>
<path d="M4301 1004 c0 -11 3 -14 6 -6 3 7 2 16 -1 19 -3 4 -6 -2 -5 -13z"/>
<path d="M3860 999 c0 -5 5 -7 10 -4 6 3 10 8 10 11 0 2 -4 4 -10 4 -5 0 -10
-5 -10 -11z"/>
<path d="M4125 1000 c-3 -5 -1 -10 4 -10 6 0 11 5 11 10 0 6 -2 10 -4 10 -3 0
-8 -4 -11 -10z"/>
<path d="M4241 984 c0 -11 3 -14 6 -6 3 7 2 16 -1 19 -3 4 -6 -2 -5 -13z"/>
<path d="M6231 928 c-11 -30 15 -38 34 -11 20 25 18 33 -5 33 -12 0 -24 -9
-29 -22z"/>
<path d="M7720 806 c0 -9 16 -26 35 -38 19 -13 37 -31 41 -40 6 -21 34 -24 34
-5 0 14 -40 53 -84 82 -23 16 -26 16 -26 1z"/>
<path d="M7858 715 c-9 -9 16 -84 34 -101 9 -10 24 -14 33 -10 32 12 -7 116
-44 116 -10 0 -20 -2 -23 -5z"/>
<path d="M5455 610 c4 -6 11 -8 16 -5 14 9 11 15 -7 15 -8 0 -12 -5 -9 -10z"/>
<path d="M7835 528 c-4 -18 -12 -44 -18 -58 -6 -14 -16 -43 -23 -65 -7 -22
-20 -61 -30 -86 -15 -40 -16 -50 -5 -77 23 -56 46 -42 76 45 54 162 67 217 56
246 -15 39 -47 36 -56 -5z"/>
<path d="M8607 393 c-2 -5 -7 -20 -11 -35 -6 -25 -4 -28 19 -28 24 0 65 -31
65 -49 0 -5 -8 -12 -17 -16 -13 -4 -28 4 -51 29 -49 55 -112 49 -112 -10 0
-27 5 -36 23 -43 43 -17 136 -93 149 -122 7 -16 20 -29 28 -29 9 0 22 -9 30
-20 17 -24 38 -25 68 -4 37 26 25 61 -38 113 -55 44 -73 71 -48 71 22 0 88
-49 88 -65 0 -8 7 -15 15 -15 8 0 24 -5 34 -12 32 -19 71 4 71 42 0 18 -6 33
-15 36 -8 4 -15 11 -15 18 0 6 -12 13 -26 14 -31 2 -53 27 -54 60 0 21 -3 23
-30 17 -31 -7 -79 18 -80 43 0 13 -86 18 -93 5z"/>
<path d="M4656 282 c-3 -6 -1 -14 5 -17 15 -10 25 3 12 16 -7 7 -13 7 -17 1z"/>
<path d="M8515 140 c-4 -6 7 -10 24 -10 17 0 31 5 31 10 0 6 -11 10 -24 10
-14 0 -28 -4 -31 -10z"/>
<path d="M4470 109 c0 -5 5 -7 10 -4 6 3 10 8 10 11 0 2 -4 4 -10 4 -5 0 -10
-5 -10 -11z"/>
<path d="M2693 74 c-8 -23 16 -34 44 -21 23 10 24 12 7 24 -24 18 -43 16 -51
-3z"/>
<path d="M8640 36 c0 -26 29 -44 41 -25 7 11 -18 49 -33 49 -5 0 -8 -11 -8
-24z"/>
<path d="M3228 29 c-31 -17 -20 -29 27 -29 32 0 45 4 45 14 0 24 -42 33 -72
15z"/>
<path d="M7418 3 c7 -3 16 -2 19 1 4 3 -2 6 -13 5 -11 0 -14 -3 -6 -6z"/>
</g>
</svg>
